#N canvas 965 275 675 466 12;
#X obj 275 67 noise~;
#X obj 391 120 adc~;
#X obj 353 398 dac~;
#X obj 324 314 +~ 1;
#X obj 171 130 osc~ 4000;
#X obj 219 203 +~ 1;
#X obj 267 138 *~ 0.25;
#X obj 382 187 *~ 1.5;
#X obj 254 260 *~ 0.25;
#X connect 0 0 6 0;
#X connect 1 0 7 0;
#X connect 3 0 2 0;
#X connect 3 0 2 1;
#X connect 4 0 5 0;
#X connect 5 0 8 0;
#X connect 6 0 5 0;
#X connect 7 0 3 0;
#X connect 8 0 3 0;
