#N canvas 1055 239 836 638 12;
#X obj 100 26 adc~;
#X obj 200 489 dac~;
#X obj 323 41 adc~;
#X obj 462 127 dbtorms;
#X obj 314 262 hip~ 2000;
#X obj 213 417 +~ 1;
#X obj 162 126 lop~ 2000;
#X obj 509 81 -30;
#X connect 0 0 6 0;
#X connect 0 1 6 0;
#X connect 2 0 4 0;
#X connect 2 1 4 0;
#X connect 3 0 4 1;
#X connect 4 0 5 1;
#X connect 5 0 1 0;
#X connect 5 0 1 1;
#X connect 6 0 5 0;
#X connect 7 0 3 0;
