#N canvas -9 -9 1920 976 24;
#X obj 37 15 netreceive 32000;
#X msg 28 67 \; percep bang \;;
#X obj 295 177 noise~;
#X obj 401 235 adc~;
#X obj 353 425 +~ 1;
#X obj 94 217 osc~ 4000;
#X obj 229 318 +~ 1;
#X obj 277 253 *~ 0.25;
#X obj 392 302 *~ 1.5;
#X obj 264 375 *~ 0.25;
#X obj 78 455 bng 15 250 50 0 empty acou empty 17 7 0 10 -262144 -1
-1;
#X obj 147 449 tgl 15 0 empty empty empty 17 7 0 10 -262144 -1 -1 0
1;
#X obj 265 474 *~;
#X obj 264 532 dac~;
#X obj 190 447 0;
#X text 245 661 acouphène;
#X obj 658 179 adc~;
#X obj 828 164 adc~;
#X obj 911 251 dbtorms;
#X obj 804 331 hip~ 2000;
#X obj 752 374 +~ 1;
#X obj 670 244 lop~ 2000;
#X obj 920 130 -30;
#X obj 644 279 bng 15 250 50 0 empty presby empty 17 7 0 10 -262144
-1 -1;
#X obj 671 330 tgl 15 0 empty empty empty 17 7 0 10 -262144 -1 -1 0
1;
#X obj 748 423 *~;
#X obj 747 481 dac~;
#X obj 702 370 0;
#X text 710 662 presbyacousie;
#X obj 1303 222 adc~;
#X obj 1287 324 +~ 1;
#X obj 1293 271 lop~ 4000;
#X obj 1229 241 bng 15 250 50 0 empty percep empty 17 7 0 10 -262144
-1 -1;
#X obj 1235 282 tgl 15 0 empty empty empty 17 7 0 10 -262144 -1 -1
0 1;
#X obj 1278 398 *~;
#X obj 1277 456 dac~;
#X obj 1244 337 0;
#X text 1168 659 surdité de perception;
#X obj 1626 244 adc~;
#X obj 1692 280 dbtorms;
#X obj 1692 237 -30;
#X obj 1661 327 +~ 1;
#X obj 1582 246 bng 15 250 50 0 empty transm empty 17 7 0 10 -262144
-1 -1;
#X obj 1599 283 tgl 15 0 empty empty empty 17 7 0 10 -262144 -1 -1
0 1;
#X obj 1640 378 *~;
#X obj 1639 436 dac~;
#X obj 1615 329 0;
#X text 1562 663 surdité de transmission;
#X msg 110 515 \; pd dsp 1;
#X connect 0 0 1 0;
#X connect 2 0 7 0;
#X connect 3 0 8 0;
#X connect 4 0 12 1;
#X connect 5 0 6 0;
#X connect 6 0 9 0;
#X connect 7 0 6 0;
#X connect 8 0 4 0;
#X connect 9 0 4 0;
#X connect 10 0 11 0;
#X connect 11 0 14 0;
#X connect 12 0 13 0;
#X connect 12 0 13 1;
#X connect 14 0 12 0;
#X connect 16 0 21 0;
#X connect 16 1 21 0;
#X connect 17 0 19 0;
#X connect 17 1 19 0;
#X connect 18 0 19 1;
#X connect 19 0 20 1;
#X connect 20 0 25 1;
#X connect 21 0 20 0;
#X connect 22 0 18 0;
#X connect 23 0 24 0;
#X connect 24 0 27 0;
#X connect 25 0 26 0;
#X connect 25 0 26 1;
#X connect 27 0 25 0;
#X connect 29 0 31 0;
#X connect 30 0 34 1;
#X connect 31 0 30 0;
#X connect 32 0 33 0;
#X connect 33 0 36 0;
#X connect 34 0 35 0;
#X connect 34 0 35 1;
#X connect 36 0 34 0;
#X connect 38 0 41 0;
#X connect 38 1 41 0;
#X connect 39 0 41 1;
#X connect 40 0 39 0;
#X connect 41 0 44 1;
#X connect 42 0 43 0;
#X connect 43 0 46 0;
#X connect 44 0 45 0;
#X connect 44 0 45 1;
#X connect 46 0 44 0;
#X connect 48 0 14 0;
